<svg width="133" height="32" viewBox="0 0 133 32" fill="none" xmlns="http://www.w3.org/2000/svg">
<path d="M133 0H0V32H133V0Z" fill="#FFDD2D"/>
<path d="M14.8662 13.515H10.354V10.6461H22.6208V13.4926H18.1304V21.3371H14.8608L14.8662 13.515Z" fill="black"/>
<path d="M35.1764 10.6461V21.2922H32.0157V15.1287L26.5662 21.3315H23.7816V10.6461H26.9423V16.8713L32.3863 10.6461H35.1764Z" fill="black"/>
<path d="M40.6204 21.3315H37.4597V10.6461H40.6204V14.5684H45.6993V10.6461H48.86V21.2922H45.6993V17.37H40.6204V21.3315Z" fill="black"/>
<path d="M51.1433 21.3315V10.6461H54.304V13.515H57.5737C58.3545 13.4734 59.1364 13.572 59.8843 13.8063C60.5987 14.0587 61.2143 14.5425 61.6387 15.185C62.0631 15.8275 62.2736 16.5941 62.2385 17.37C62.2659 18.2143 62.0101 19.0426 61.514 19.7159C61.0179 20.3893 60.3116 20.8667 59.5137 21.0681C58.867 21.2451 58.1993 21.328 57.5301 21.3147L51.1433 21.3315ZM54.304 18.754H57.0288C57.4491 18.7927 57.8726 18.7392 58.2713 18.5971C58.5041 18.4934 58.7024 18.322 58.8418 18.104C58.9812 17.886 59.0557 17.6309 59.056 17.37C59.0613 17.1099 58.983 16.8553 58.8332 16.6456C58.6835 16.4359 58.4706 16.2828 58.2277 16.2101C57.8318 16.0908 57.4187 16.0434 57.007 16.07H54.2822L54.304 18.754Z" fill="black"/>
<path d="M66.8542 21.3315H63.6935V10.6461H66.8542V14.6804H67.7207L71.5353 10.6685H75.5025L70.4454 15.7731L75.6987 21.3315H71.4917L67.7207 17.2971H66.8542V21.3315Z" fill="black"/>
<path d="M89.0609 16.0196C89.0609 19.2023 86.5105 21.6677 82.2817 21.6677C78.0529 21.6677 75.4808 19.2023 75.4808 16.0196C75.4808 12.837 78.0311 10.3772 82.2872 10.3772C86.5432 10.3772 89.0609 12.8426 89.0609 16.0196ZM85.7476 16.0196C85.7476 14.277 84.3743 12.9995 82.2817 12.9995C80.1891 12.9995 78.8159 14.277 78.8159 16.0196C78.8159 17.7622 80.1673 19.051 82.2872 19.051C84.407 19.051 85.7476 17.7678 85.7476 16.0196Z" fill="black"/>
<path d="M105.845 15.9972C105.845 19.0454 103.469 20.6367 99.4803 20.7263V21.8022H96.3196V20.7319C92.3524 20.6423 89.9764 19.051 89.9764 16.0028C89.9764 12.9547 92.3524 11.2345 96.3196 11.1448V10.0858H99.4803V11.1616C103.469 11.2065 105.845 12.9547 105.845 15.9972ZM96.3196 13.4477C94.1398 13.5374 93.1807 14.5684 93.1807 15.9972C93.1807 17.426 94.1398 18.3506 96.3196 18.4402V13.4477ZM102.619 15.9972C102.619 14.5684 101.682 13.5374 99.4803 13.4477V18.4402C101.682 18.3506 102.619 17.4316 102.619 15.9972Z" fill="black"/>
<path d="M122.613 15.9972C122.613 19.0454 120.237 20.6367 116.248 20.7263V21.8022H113.088V20.7319C109.12 20.6423 106.744 19.051 106.744 16.0028C106.744 12.9547 109.12 11.2345 113.088 11.1448V10.0858H116.248V11.1616C120.254 11.2065 122.613 12.9547 122.613 15.9972ZM113.104 13.4477C110.924 13.5374 109.965 14.5684 109.965 15.9972C109.965 17.426 110.924 18.3506 113.104 18.4402V13.4477ZM119.404 15.9972C119.404 14.5684 118.466 13.5374 116.265 13.4477V18.4402C118.466 18.3506 119.404 17.4316 119.404 15.9972Z" fill="black"/>
</svg>
